# https://github.com/mikedh/trimesh
v 0.03849804 -0.04193460 -0.00025400
v 0.04055809 -0.04055809 -0.00025400
v 0.03606796 -0.04241800 -0.00025400
v 0.03810000 -0.03810000 -0.00025400
v -0.03606796 -0.04241800 -0.00025400
v -0.03810000 -0.03810000 -0.00025400
v -0.03849804 -0.04193460 -0.00025400
v -0.04055809 -0.04055809 -0.00025400
v -0.04193460 -0.03849804 -0.00025400
v -0.04241800 -0.03606796 -0.00025400
v -0.04241800 0.03606796 -0.00025400
v -0.03810000 0.03810000 -0.00025400
v -0.04193460 0.03849804 -0.00025400
v -0.04055809 0.04055809 -0.00025400
v -0.03849804 0.04193460 -0.00025400
v -0.03606796 0.04241800 -0.00025400
v 0.03606796 0.04241800 -0.00025400
v 0.03810000 0.03810000 -0.00025400
v 0.03849804 0.04193460 -0.00025400
v 0.04055809 0.04055809 -0.00025400
v 0.04193460 0.03849804 -0.00025400
v 0.04241800 0.03606796 -0.00025400
v 0.04241800 -0.03606796 -0.00025400
v 0.04193460 -0.03849804 -0.00025400
v -0.04241800 0.03606796 -0.02819395
v -0.04241800 -0.03606796 -0.02819395
v -0.03606796 -0.04241800 -0.02819395
v 0.03606796 -0.04241800 -0.02819395
v 0.04241800 0.03606796 -0.02819395
v 0.04241800 -0.03606796 -0.02819395
v -0.03606796 0.04241800 -0.02819395
v 0.03606796 0.04241800 -0.02819395
v 0.03849804 0.04193460 -0.02819395
v 0.04055809 0.04055809 -0.02819395
v 0.04193460 -0.03849804 -0.02819395
v 0.04055809 -0.04055809 -0.02819395
v -0.04193460 0.03849804 -0.02819395
v -0.04055809 0.04055809 -0.02819395
v -0.03849804 -0.04193460 -0.02819395
v -0.04055809 -0.04055809 -0.02819395
v 0.04193460 0.03849804 -0.02819395
v -0.03849804 0.04193460 -0.02819395
v 0.03849804 -0.04193460 -0.02819395
v -0.04193460 -0.03849804 -0.02819395
v 0.03810000 0.03810000 0.00000000
v 0.03810000 -0.03810000 0.00000000
v -0.03810000 0.03810000 0.00000000
v -0.03810000 -0.03810000 0.00000000
f 1 2 3
f 3 2 4
f 3 4 5
f 5 4 6
f 5 6 7
f 7 6 8
f 9 8 10
f 10 8 6
f 10 6 11
f 11 6 12
f 11 12 13
f 13 12 14
f 15 14 16
f 16 14 12
f 16 12 17
f 17 12 18
f 17 18 19
f 19 18 20
f 21 20 22
f 22 20 18
f 22 18 23
f 23 18 4
f 23 4 24
f 24 4 2
f 25 26 11
f 11 26 10
f 27 28 5
f 5 28 3
f 22 23 29
f 29 23 30
f 16 17 31
f 31 17 32
f 25 29 26
f 26 29 30
f 32 33 34
f 30 35 36
f 25 37 38
f 27 39 40
f 34 41 32
f 32 41 29
f 32 29 31
f 31 29 25
f 31 25 42
f 42 25 38
f 36 43 30
f 30 43 28
f 30 28 26
f 26 28 27
f 26 27 44
f 44 27 40
f 16 31 42
f 16 42 15
f 15 42 38
f 15 38 14
f 14 38 37
f 14 37 13
f 13 37 25
f 13 25 11
f 32 17 19
f 32 19 33
f 33 19 20
f 33 20 34
f 34 20 21
f 34 21 41
f 41 21 22
f 41 22 29
f 27 5 7
f 27 7 39
f 39 7 8
f 39 8 40
f 40 8 9
f 40 9 44
f 44 9 10
f 44 10 26
f 3 28 43
f 3 43 1
f 1 43 36
f 1 36 2
f 2 36 35
f 2 35 24
f 24 35 30
f 24 30 23
f 45 46 18
f 18 46 4
f 47 45 12
f 12 45 18
f 48 47 6
f 6 47 12
f 46 48 4
f 4 48 6
f 47 48 45
f 45 48 46

