# https://github.com/mikedh/trimesh
v 0.07739800 0.12057800 -0.00025400
v 0.07620000 0.11430000 -0.00025400
v 0.07620000 -0.11430000 -0.00025400
v -0.07620000 0.11430000 -0.00025400
v -0.07739800 0.12057800 -0.00025400
v -0.07620000 -0.11430000 -0.00025400
v -0.07739800 -0.12057800 -0.00025400
v 0.07739800 -0.12057800 -0.00025400
v 0.08759713 -0.13077710 0.07721596
v 0.09143996 -0.13462000 0.07721596
v 0.08759713 0.13077710 0.07721596
v 0.09143996 0.13462000 0.07721596
v -0.08759713 0.13077710 0.07721596
v -0.09143996 0.13462000 0.07721596
v -0.08759713 -0.13077710 0.07721596
v -0.09143996 -0.13462000 0.07721596
v -0.08073925 -0.12391930 -0.00406396
v 0.08073925 -0.12391930 -0.00406396
v -0.08073925 0.12391930 -0.00406396
v 0.08073925 0.12391930 -0.00406396
v 0.07620000 -0.11430000 0.00000000
v -0.07620000 -0.11430000 0.00000000
v 0.07620000 0.11430000 0.00000000
v -0.07620000 0.11430000 0.00000000
v 0.07620000 -0.11430000 0.00000000
v -0.07620000 -0.11430000 0.00000000
v 0.07620000 0.11430000 0.00000000
v -0.07620000 0.11430000 0.00000000
f 1 2 3
f 2 1 4
f 4 1 5
f 4 5 6
f 6 5 7
f 6 7 3
f 3 7 8
f 3 8 1
f 9 10 11
f 11 10 12
f 11 12 13
f 13 12 14
f 13 14 15
f 15 14 16
f 15 16 9
f 9 16 10
f 17 18 16
f 16 18 10
f 19 17 14
f 14 17 16
f 20 19 12
f 12 19 14
f 18 20 10
f 10 20 12
f 19 20 17
f 17 20 18
f 8 7 9
f 9 7 15
f 7 5 15
f 15 5 13
f 5 1 13
f 13 1 11
f 1 8 11
f 11 8 9
f 21 22 3
f 3 22 6
f 23 21 2
f 2 21 3
f 24 23 4
f 4 23 2
f 22 24 6
f 6 24 4
f 27 28 25
f 25 28 26

