# https://github.com/mikedh/trimesh
v 0.00297254 -0.03492563 -0.00025400
v 0.00000000 -0.03505200 -0.00025400
v 0.00000000 -0.03505200 -0.05029189
v -0.00297254 -0.03492563 -0.05029189
v -0.00297254 -0.03492563 -0.00025400
v -0.00883234 -0.03392094 -0.00025400
v -0.00883234 -0.03392094 -0.05029189
v -0.01443791 -0.03194034 -0.00025400
v -0.01443791 -0.03194034 -0.05029189
v -0.01962816 -0.02904087 -0.00025400
v -0.01962816 -0.02904087 -0.05029189
v -0.02425384 -0.02530592 -0.00025400
v -0.02425384 -0.02530592 -0.05029189
v -0.02818167 -0.02084296 -0.00025400
v -0.02818167 -0.02084296 -0.05029189
v -0.03129875 -0.01578044 -0.00025400
v -0.03129875 -0.01578044 -0.05029189
v -0.03351551 -0.01026391 -0.00025400
v -0.03351551 -0.01026391 -0.05029189
v -0.03476804 -0.00445223 -0.00025400
v -0.03476804 -0.00445223 -0.05029189
v -0.03502041 0.00148755 -0.00025400
v -0.03502041 0.00148755 -0.05029189
v -0.03426522 0.00738472 -0.00025400
v -0.03426522 0.00738472 -0.05029189
v -0.03252428 0.01306933 -0.00025400
v -0.03252428 0.01306933 -0.05029189
v -0.02984780 0.01837795 -0.00025400
v -0.02984780 0.01837795 -0.05029189
v -0.02631253 0.02315795 -0.00025400
v -0.02631253 0.02315795 -0.05029189
v -0.02202028 0.02727162 -0.00025400
v -0.02202028 0.02727162 -0.05029189
v -0.01709467 0.03060084 -0.00025400
v -0.01709467 0.03060084 -0.05029189
v -0.01167714 0.03304970 -0.00025400
v -0.01167714 0.03304970 -0.05029189
v -0.00592375 0.03454780 -0.00025400
v -0.00592375 0.03454780 -0.05029189
v 0.00000000 0.03505200 -0.00025400
v 0.00000000 0.03505200 -0.05029189
v 0.00592375 0.03454780 -0.00025400
v 0.00592375 0.03454780 -0.05029189
v 0.01167714 0.03304970 -0.00025400
v 0.01167714 0.03304970 -0.05029189
v 0.01709467 0.03060084 -0.00025400
v 0.01709467 0.03060084 -0.05029189
v 0.02202028 0.02727162 -0.00025400
v 0.02202028 0.02727162 -0.05029189
v 0.02631253 0.02315795 -0.00025400
v 0.02631253 0.02315795 -0.05029189
v 0.02984780 0.01837795 -0.00025400
v 0.02984780 0.01837795 -0.05029189
v 0.03252428 0.01306933 -0.00025400
v 0.03252428 0.01306933 -0.05029189
v 0.03426522 0.00738472 -0.00025400
v 0.03426522 0.00738472 -0.05029189
v 0.03502041 0.00148755 -0.00025400
v 0.03502041 0.00148755 -0.05029189
v 0.03476804 -0.00445223 -0.00025400
v 0.03476804 -0.00445223 -0.05029189
v 0.03351551 -0.01026391 -0.00025400
v 0.03351551 -0.01026391 -0.05029189
v 0.03129875 -0.01578044 -0.00025400
v 0.03129875 -0.01578044 -0.05029189
v 0.02818167 -0.02084296 -0.00025400
v 0.02818167 -0.02084296 -0.05029189
v 0.02425384 -0.02530592 -0.00025400
v 0.02425384 -0.02530592 -0.05029189
v 0.01962816 -0.02904087 -0.00025400
v 0.01962816 -0.02904087 -0.05029189
v 0.01443791 -0.03194034 -0.00025400
v 0.01443791 -0.03194034 -0.05029189
v 0.00883234 -0.03392094 -0.00025400
v 0.00883234 -0.03392094 -0.05029189
v 0.00297254 -0.03492563 -0.05029189
v 0.03171795 -0.00142437 -0.00025400
v 0.03146255 0.00426185 -0.00025400
v 0.03019601 0.00981128 -0.00025400
v 0.02795881 0.01504522 -0.00025400
v 0.02482306 0.01979577 -0.00025400
v 0.02088952 0.02390998 -0.00025400
v 0.01628452 0.02725571 -0.00025400
v 0.01115614 0.02972543 -0.00025400
v 0.00566912 0.03123968 -0.00025400
v 0.00000000 0.03174996 -0.00025400
v -0.00566912 0.03123968 -0.00025400
v -0.01115614 0.02972543 -0.00025400
v -0.01628452 0.02725571 -0.00025400
v -0.02088952 0.02390998 -0.00025400
v -0.02482306 0.01979577 -0.00025400
v -0.02795881 0.01504522 -0.00025400
v -0.03019601 0.00981128 -0.00025400
v -0.03146255 0.00426185 -0.00025400
v -0.03171795 -0.00142437 -0.00025400
v -0.03095394 -0.00706500 -0.00025400
v -0.02919501 -0.01247853 -0.00025400
v -0.02649766 -0.01749098 -0.00025400
v -0.02294874 -0.02194124 -0.00025400
v -0.01866215 -0.02568626 -0.00025400
v -0.01377570 -0.02860569 -0.00025400
v -0.00844663 -0.03060579 -0.00025400
v -0.00284594 -0.03162217 -0.00025400
v 0.00000000 -0.03174996 -0.00025400
v 0.00284594 -0.03162217 -0.00025400
v 0.00844663 -0.03060579 -0.00025400
v 0.01377570 -0.02860569 -0.00025400
v 0.01866215 -0.02568626 -0.00025400
v 0.02294874 -0.02194124 -0.00025400
v 0.02649766 -0.01749098 -0.00025400
v 0.02919501 -0.01247853 -0.00025400
v 0.03095394 -0.00706500 -0.00025400
v 0.00000000 0.00000000 -0.05029189
v 0.00284594 -0.03162217 0.00000000
v 0.00000000 -0.03174996 0.00000000
v -0.00284594 -0.03162217 0.00000000
v -0.00844663 -0.03060579 0.00000000
v -0.01377570 -0.02860569 0.00000000
v -0.01866215 -0.02568626 0.00000000
v -0.02294874 -0.02194124 0.00000000
v -0.02649766 -0.01749098 0.00000000
v -0.02919501 -0.01247853 0.00000000
v -0.03095394 -0.00706500 0.00000000
v -0.03171795 -0.00142437 0.00000000
v -0.03146255 0.00426185 0.00000000
v -0.03019601 0.00981128 0.00000000
v -0.02795881 0.01504522 0.00000000
v -0.02482306 0.01979577 0.00000000
v -0.02088952 0.02390998 0.00000000
v -0.01628452 0.02725571 0.00000000
v -0.01115614 0.02972543 0.00000000
v -0.00566912 0.03123968 0.00000000
v 0.00000000 0.03174996 0.00000000
v 0.00566912 0.03123968 0.00000000
v 0.01115614 0.02972543 0.00000000
v 0.01628452 0.02725571 0.00000000
v 0.02088952 0.02390998 0.00000000
v 0.02482306 0.01979577 0.00000000
v 0.02795881 0.01504522 0.00000000
v 0.03019601 0.00981128 0.00000000
v 0.03146255 0.00426185 0.00000000
v 0.03171795 -0.00142437 0.00000000
v 0.03095394 -0.00706500 0.00000000
v 0.02919501 -0.01247853 0.00000000
v 0.02649766 -0.01749098 0.00000000
v 0.02294874 -0.02194124 0.00000000
v 0.01866215 -0.02568626 0.00000000
v 0.01377570 -0.02860569 0.00000000
v 0.00844663 -0.03060579 0.00000000
v 0.00000000 0.00000000 0.00000000
f 1 2 3
f 3 2 4
f 2 5 4
f 4 5 6
f 4 6 7
f 7 6 8
f 7 8 9
f 9 8 10
f 9 10 11
f 11 10 12
f 11 12 13
f 13 12 14
f 13 14 15
f 15 14 16
f 15 16 17
f 17 16 18
f 17 18 19
f 19 18 20
f 19 20 21
f 21 20 22
f 21 22 23
f 23 22 24
f 23 24 25
f 25 24 26
f 25 26 27
f 27 26 28
f 27 28 29
f 29 28 30
f 29 30 31
f 31 30 32
f 31 32 33
f 33 32 34
f 33 34 35
f 35 34 36
f 35 36 37
f 37 36 38
f 37 38 39
f 39 38 40
f 39 40 41
f 41 40 42
f 41 42 43
f 43 42 44
f 43 44 45
f 45 44 46
f 45 46 47
f 47 46 48
f 47 48 49
f 49 48 50
f 49 50 51
f 51 50 52
f 51 52 53
f 53 52 54
f 53 54 55
f 55 54 56
f 55 56 57
f 57 56 58
f 57 58 59
f 59 58 60
f 59 60 61
f 61 60 62
f 61 62 63
f 63 62 64
f 63 64 65
f 65 64 66
f 65 66 67
f 67 66 68
f 67 68 69
f 69 68 70
f 69 70 71
f 71 70 72
f 71 72 73
f 73 72 74
f 73 74 75
f 75 74 1
f 75 1 76
f 76 1 3
f 77 58 78
f 78 58 56
f 78 56 79
f 79 56 54
f 79 54 80
f 80 54 52
f 80 52 81
f 81 52 50
f 81 50 82
f 82 50 48
f 82 48 83
f 83 48 46
f 83 46 84
f 84 46 44
f 84 44 85
f 85 44 42
f 85 42 86
f 86 42 40
f 86 40 87
f 87 40 38
f 87 38 88
f 88 38 36
f 88 36 89
f 89 36 34
f 89 34 90
f 90 34 32
f 90 32 91
f 91 32 30
f 91 30 92
f 92 30 28
f 92 28 93
f 93 28 26
f 93 26 94
f 94 26 24
f 94 24 95
f 24 22 95
f 95 22 20
f 95 20 96
f 96 20 18
f 96 18 97
f 97 18 16
f 97 16 98
f 98 16 14
f 98 14 99
f 99 14 12
f 99 12 100
f 100 12 10
f 100 10 101
f 101 10 8
f 101 8 102
f 102 8 6
f 102 6 103
f 103 6 5
f 103 5 104
f 104 5 2
f 104 2 105
f 105 2 1
f 105 1 106
f 106 1 74
f 106 74 107
f 107 74 72
f 107 72 108
f 108 72 70
f 108 70 109
f 109 70 68
f 109 68 110
f 110 68 66
f 110 66 111
f 111 66 64
f 111 64 112
f 112 64 62
f 112 62 77
f 77 62 60
f 77 60 58
f 3 4 113
f 3 113 76
f 71 73 113
f 113 73 75
f 113 75 76
f 65 67 113
f 113 67 69
f 113 69 71
f 59 61 113
f 113 61 63
f 113 63 65
f 53 55 113
f 113 55 57
f 113 57 59
f 47 49 113
f 113 49 51
f 113 51 53
f 41 43 113
f 113 43 45
f 113 45 47
f 35 37 113
f 113 37 39
f 113 39 41
f 29 31 113
f 113 31 33
f 113 33 35
f 23 25 113
f 113 25 27
f 113 27 29
f 17 19 113
f 113 19 21
f 113 21 23
f 11 13 113
f 113 13 15
f 113 15 17
f 4 7 113
f 113 7 9
f 113 9 11
f 114 115 104
f 104 115 103
f 115 116 103
f 103 116 117
f 103 117 102
f 102 117 118
f 102 118 101
f 101 118 119
f 101 119 100
f 100 119 120
f 100 120 99
f 99 120 121
f 99 121 98
f 98 121 122
f 98 122 97
f 97 122 123
f 97 123 96
f 96 123 124
f 96 124 95
f 95 124 125
f 95 125 94
f 94 125 126
f 94 126 93
f 93 126 127
f 93 127 92
f 92 127 128
f 92 128 91
f 91 128 129
f 91 129 90
f 90 129 130
f 90 130 89
f 89 130 131
f 89 131 88
f 88 131 132
f 88 132 87
f 87 132 133
f 87 133 86
f 86 133 134
f 86 134 85
f 85 134 135
f 85 135 84
f 84 135 136
f 84 136 83
f 83 136 137
f 83 137 82
f 82 137 138
f 82 138 81
f 81 138 139
f 81 139 80
f 80 139 140
f 80 140 79
f 79 140 141
f 79 141 78
f 78 141 142
f 78 142 77
f 77 142 143
f 77 143 112
f 112 143 144
f 112 144 111
f 111 144 145
f 111 145 110
f 110 145 146
f 110 146 109
f 109 146 147
f 109 147 108
f 108 147 148
f 108 148 107
f 107 148 149
f 107 149 106
f 106 149 114
f 106 114 105
f 105 114 104
f 117 116 150
f 150 116 115
f 150 115 114
f 120 119 150
f 150 119 118
f 150 118 117
f 123 122 150
f 150 122 121
f 150 121 120
f 126 125 150
f 150 125 124
f 150 124 123
f 129 128 150
f 150 128 127
f 150 127 126
f 132 131 150
f 150 131 130
f 150 130 129
f 135 134 150
f 150 134 133
f 150 133 132
f 138 137 150
f 150 137 136
f 150 136 135
f 141 140 150
f 150 140 139
f 150 139 138
f 144 143 150
f 150 143 142
f 150 142 141
f 147 146 150
f 150 146 145
f 150 145 144
f 114 149 150
f 150 149 148
f 150 148 147

